<svg width="21" height="24" viewBox="0 0 21 24" fill="none" xmlns="http://www.w3.org/2000/svg">
<path d="M19.4144 8.1816C19.2752 8.2896 16.8176 9.6744 16.8176 12.7536C16.8176 16.3152 19.9448 17.5752 20.0384 17.6064C20.024 17.6832 19.5416 19.332 18.3896 21.012C17.3624 22.4904 16.2896 23.9664 14.6576 23.9664C13.0256 23.9664 12.6056 23.0184 10.7216 23.0184C8.8856 23.0184 8.2328 23.9976 6.74 23.9976C5.2472 23.9976 4.2056 22.6296 3.008 20.9496C1.6208 18.9768 0.5 15.912 0.5 13.0032C0.5 8.3376 3.5336 5.8632 6.5192 5.8632C8.1056 5.8632 9.428 6.9048 10.424 6.9048C11.372 6.9048 12.8504 5.8008 14.6552 5.8008C15.3392 5.8008 17.7968 5.8632 19.4144 8.1816ZM13.7984 3.8256C14.5448 2.94 15.0728 1.7112 15.0728 0.4824C15.0728 0.312 15.0584 0.1392 15.0272 0C13.8128 0.0456 12.368 0.8088 11.4968 1.8192C10.8128 2.5968 10.1744 3.8256 10.1744 5.0712C10.1744 5.2584 10.2056 5.4456 10.22 5.5056C10.2968 5.52 10.4216 5.5368 10.5464 5.5368C11.636 5.5368 13.0064 4.8072 13.7984 3.8256Z" fill="white"/>
</svg>
