<svg width="528" height="24" viewBox="0 0 528 24" fill="none" xmlns="http://www.w3.org/2000/svg">
<path d="M8 10V8C8 5.79086 9.79086 4 12 4C14.2091 4 16 5.79086 16 8V10M12 15C12.5523 15 13 14.5523 13 14C13 13.4477 12.5523 13 12 13C11.4477 13 11 13.4477 11 14C11 14.5523 11.4477 15 12 15ZM12 15V17M7 20H17C18.1046 20 19 19.1046 19 18V12C19 10.8954 18.1046 10 17 10H7C5.89543 10 5 10.8954 5 12V18C5 19.1046 5.89543 20 7 20Z" stroke="#686B6E" stroke-width="1.5" stroke-linecap="round" stroke-linejoin="round"/>
<path d="M80 10V8C80 5.79086 81.7909 4 84 4C85.36 4 86.5614 4.6787 87.2841 5.71586M84 15C84.5523 15 85 14.5523 85 14C85 13.4477 84.5523 13 84 13C83.4477 13 83 13.4477 83 14C83 14.5523 83.4477 15 84 15ZM84 15V17M79 20H89C90.1046 20 91 19.1046 91 18V12C91 10.8954 90.1046 10 89 10H79C77.8954 10 77 10.8954 77 12V18C77 19.1046 77.8954 20 79 20Z" stroke="#686B6E" stroke-width="1.5" stroke-linecap="round" stroke-linejoin="round"/>
<path d="M149 5L163 19M163 5L149 19" stroke="#686B6E" stroke-width="1.5" stroke-linecap="round"/>
<path d="M219 10.8L225.02 17.2218C225.416 17.6432 226.084 17.6432 226.48 17.2218L237 6" stroke="#686B6E" stroke-width="1.5" stroke-linecap="round"/>
<path d="M300 5V12M300 12V19M300 12H307M300 12H293" stroke="#686B6E" stroke-width="1.5" stroke-linecap="round"/>
<path d="M372 8V12M372 12V16M372 12H376M372 12H368" stroke="#686B6E" stroke-width="1.5" stroke-linecap="round"/>
<path d="M444 8V12M444 12V16M444 12H448M444 12H440M453 12C453 16.9706 448.971 21 444 21C439.029 21 435 16.9706 435 12C435 7.02944 439.029 3 444 3C448.971 3 453 7.02944 453 12Z" stroke="#686B6E" stroke-width="1.5" stroke-linecap="round"/>
<path d="M516 10C517.105 10 518 10.8954 518 12C518 13.1046 517.105 14 516 14C514.895 14 514 13.1046 514 12C514 10.8954 514.895 10 516 10Z" stroke="#686B6E" stroke-width="1.5" stroke-linecap="round" stroke-linejoin="round"/>
<path d="M510.901 6.7469C509.965 6.20624 508.767 6.52709 508.227 7.46353L508.185 7.53583C507.644 8.47263 507.965 9.67051 508.902 10.2114L509.145 10.3515C509.717 10.6821 510 11.3388 510 12C510 12.6612 509.717 13.3179 509.145 13.6485L508.902 13.7886C507.965 14.3295 507.644 15.5274 508.185 16.4642L508.227 16.5365C508.767 17.4729 509.965 17.7938 510.901 17.2531L511.145 17.1122C511.718 16.7816 512.423 16.863 512.995 17.1946C513.567 17.526 514 18.1005 514 18.7614V19.0427C514 20.1237 514.876 21 515.957 21H516.043C517.124 21 518 20.1237 518 19.0427V18.7614C518 18.1005 518.433 17.5261 519.005 17.1946C519.577 16.863 520.282 16.7816 520.855 17.1122L521.099 17.2531C522.035 17.7938 523.233 17.4729 523.773 16.5365L523.815 16.4642C524.356 15.5274 524.035 14.3295 523.098 13.7886L522.855 13.6485C522.283 13.3179 522 12.6612 522 12C522 11.3388 522.283 10.6821 522.855 10.3515L523.098 10.2114C524.035 9.6705 524.356 8.47262 523.815 7.53581L523.773 7.46353C523.233 6.52709 522.035 6.20623 521.099 6.74689L520.855 6.88783C520.282 7.2184 519.577 7.13699 519.005 6.80541C518.433 6.47395 518 5.89952 518 5.23859V4.95728C518 3.8763 517.124 3 516.043 3L515.957 3C514.876 3 514 3.8763 514 4.95727V5.23858C514 5.89952 513.567 6.47395 512.995 6.80542C512.423 7.13699 511.718 7.2184 511.145 6.88783L510.901 6.7469Z" stroke="#686B6E" stroke-width="1.5" stroke-linecap="round" stroke-linejoin="round"/>
</svg>
